<mxfile host="app.diagrams.net" agent="Mozilla/5.0 (Windows NT 10.0; Win64; x64) AppleWebKit/537.36 (KHTML, like Gecko) Chrome/132.0.0.0 Safari/537.36 Edg/132.0.0.0" version="26.0.10">
  <diagram name="Page-1" id="dM8tztQt9NShFwbWACDo">
    <mxGraphModel dx="1006" dy="1101" grid="1" gridSize="10" guides="1" tooltips="1" connect="1" arrows="1" fold="1" page="1" pageScale="1" pageWidth="827" pageHeight="1169" math="0" shadow="0">
      <root>
        <mxCell id="0" />
        <mxCell id="1" parent="0" />
        <mxCell id="qqk2YeIDn_j3kmsEYsQR-13" value="" style="rounded=1;whiteSpace=wrap;html=1;fillColor=#F8EDE3;strokeColor=none;arcSize=10;" parent="1" vertex="1">
          <mxGeometry x="240" y="760" width="400" height="400" as="geometry" />
        </mxCell>
        <mxCell id="qqk2YeIDn_j3kmsEYsQR-8" style="edgeStyle=orthogonalEdgeStyle;rounded=0;orthogonalLoop=1;jettySize=auto;html=1;entryX=0;entryY=0.5;entryDx=0;entryDy=0;exitX=1;exitY=0.25;exitDx=0;exitDy=0;strokeWidth=12;endArrow=none;endFill=0;curved=1;strokeColor=#000000;" parent="1" source="qqk2YeIDn_j3kmsEYsQR-1" target="qqk2YeIDn_j3kmsEYsQR-2" edge="1">
          <mxGeometry relative="1" as="geometry" />
        </mxCell>
        <mxCell id="qqk2YeIDn_j3kmsEYsQR-9" style="edgeStyle=orthogonalEdgeStyle;rounded=0;orthogonalLoop=1;jettySize=auto;html=1;exitX=1;exitY=0.75;exitDx=0;exitDy=0;entryX=0;entryY=0.5;entryDx=0;entryDy=0;strokeWidth=12;endArrow=none;endFill=0;curved=1;strokeColor=#000000;" parent="1" source="qqk2YeIDn_j3kmsEYsQR-1" target="qqk2YeIDn_j3kmsEYsQR-3" edge="1">
          <mxGeometry relative="1" as="geometry" />
        </mxCell>
        <mxCell id="qqk2YeIDn_j3kmsEYsQR-10" style="edgeStyle=orthogonalEdgeStyle;rounded=0;orthogonalLoop=1;jettySize=auto;html=1;exitX=0;exitY=0.75;exitDx=0;exitDy=0;entryX=1;entryY=0.5;entryDx=0;entryDy=0;strokeWidth=12;endArrow=none;endFill=0;curved=1;strokeColor=#000000;" parent="1" source="qqk2YeIDn_j3kmsEYsQR-1" target="qqk2YeIDn_j3kmsEYsQR-4" edge="1">
          <mxGeometry relative="1" as="geometry" />
        </mxCell>
        <mxCell id="qqk2YeIDn_j3kmsEYsQR-11" style="edgeStyle=orthogonalEdgeStyle;rounded=0;orthogonalLoop=1;jettySize=auto;html=1;exitX=0;exitY=0.25;exitDx=0;exitDy=0;entryX=1;entryY=0.5;entryDx=0;entryDy=0;strokeWidth=12;endArrow=none;endFill=0;curved=1;strokeColor=#000000;" parent="1" source="qqk2YeIDn_j3kmsEYsQR-1" target="qqk2YeIDn_j3kmsEYsQR-5" edge="1">
          <mxGeometry relative="1" as="geometry" />
        </mxCell>
        <mxCell id="qqk2YeIDn_j3kmsEYsQR-1" value="" style="rounded=1;whiteSpace=wrap;html=1;strokeWidth=12;fillColor=#E26D5C;strokeColor=#000000;" parent="1" vertex="1">
          <mxGeometry x="360" y="360" width="120" height="80" as="geometry" />
        </mxCell>
        <mxCell id="qqk2YeIDn_j3kmsEYsQR-2" value="" style="rounded=1;whiteSpace=wrap;html=1;strokeWidth=8;fillColor=#EBEDE9;strokeColor=#000000;" parent="1" vertex="1">
          <mxGeometry x="560" y="280" width="120" height="80" as="geometry" />
        </mxCell>
        <mxCell id="qqk2YeIDn_j3kmsEYsQR-3" value="" style="rounded=1;whiteSpace=wrap;html=1;strokeWidth=8;fillColor=#EBEDE9;strokeColor=#000000;" parent="1" vertex="1">
          <mxGeometry x="560" y="440" width="120" height="80" as="geometry" />
        </mxCell>
        <mxCell id="qqk2YeIDn_j3kmsEYsQR-4" value="" style="rounded=1;whiteSpace=wrap;html=1;strokeWidth=8;fillColor=#EBEDE9;strokeColor=#000000;" parent="1" vertex="1">
          <mxGeometry x="160" y="440" width="120" height="80" as="geometry" />
        </mxCell>
        <mxCell id="qqk2YeIDn_j3kmsEYsQR-5" value="" style="rounded=1;whiteSpace=wrap;html=1;strokeWidth=8;fillColor=#EBEDE9;strokeColor=#000000;" parent="1" vertex="1">
          <mxGeometry x="160" y="280" width="120" height="80" as="geometry" />
        </mxCell>
        <mxCell id="qqk2YeIDn_j3kmsEYsQR-12" value="" style="ellipse;whiteSpace=wrap;html=1;fillColor=#7D6E83;strokeColor=none;" parent="1" vertex="1">
          <mxGeometry x="390" y="910" width="100" height="100" as="geometry" />
        </mxCell>
        <mxCell id="qqk2YeIDn_j3kmsEYsQR-14" value="" style="ellipse;whiteSpace=wrap;html=1;fillColor=#7D6E83;strokeColor=none;" parent="1" vertex="1">
          <mxGeometry x="300" y="820" width="60" height="60" as="geometry" />
        </mxCell>
        <mxCell id="qqk2YeIDn_j3kmsEYsQR-15" value="" style="ellipse;whiteSpace=wrap;html=1;fillColor=#7D6E83;strokeColor=none;" parent="1" vertex="1">
          <mxGeometry x="520" y="820" width="60" height="60" as="geometry" />
        </mxCell>
        <mxCell id="qqk2YeIDn_j3kmsEYsQR-17" value="" style="ellipse;whiteSpace=wrap;html=1;fillColor=#7D6E83;strokeColor=none;" parent="1" vertex="1">
          <mxGeometry x="520" y="1040" width="60" height="60" as="geometry" />
        </mxCell>
        <mxCell id="qqk2YeIDn_j3kmsEYsQR-20" value="" style="endArrow=none;html=1;rounded=0;strokeWidth=15;strokeColor=#7D6E83;exitX=0.333;exitY=0.667;exitDx=0;exitDy=0;exitPerimeter=0;" parent="1" source="qqk2YeIDn_j3kmsEYsQR-16" edge="1">
          <mxGeometry width="50" height="50" relative="1" as="geometry">
            <mxPoint x="320" y="1080" as="sourcePoint" />
            <mxPoint x="558.7867965644036" y="841.2132034355964" as="targetPoint" />
          </mxGeometry>
        </mxCell>
        <mxCell id="qqk2YeIDn_j3kmsEYsQR-16" value="" style="ellipse;whiteSpace=wrap;html=1;fillColor=#7D6E83;strokeColor=none;" parent="1" vertex="1">
          <mxGeometry x="300" y="1040" width="60" height="60" as="geometry" />
        </mxCell>
        <mxCell id="o53D91jLIQOZ8q07HQFA-2" value="" style="endArrow=none;html=1;rounded=0;strokeWidth=15;strokeColor=#7D6E83;entryX=0.5;entryY=0.5;entryDx=0;entryDy=0;entryPerimeter=0;exitX=0.5;exitY=0.5;exitDx=0;exitDy=0;exitPerimeter=0;" parent="1" source="qqk2YeIDn_j3kmsEYsQR-17" target="qqk2YeIDn_j3kmsEYsQR-14" edge="1">
          <mxGeometry width="50" height="50" relative="1" as="geometry">
            <mxPoint x="540" y="1060" as="sourcePoint" />
            <mxPoint x="384" y="904" as="targetPoint" />
          </mxGeometry>
        </mxCell>
        <mxCell id="o53D91jLIQOZ8q07HQFA-4" value="" style="rounded=1;whiteSpace=wrap;html=1;fillColor=#F8EDE3;strokeColor=none;arcSize=20;" parent="1" vertex="1">
          <mxGeometry x="420" y="770" width="40" height="340" as="geometry" />
        </mxCell>
        <mxCell id="o53D91jLIQOZ8q07HQFA-19" value="" style="group" parent="1" vertex="1" connectable="0">
          <mxGeometry x="350" y="870" width="180" height="180" as="geometry" />
        </mxCell>
        <mxCell id="o53D91jLIQOZ8q07HQFA-6" value="" style="ellipse;whiteSpace=wrap;html=1;fillColor=#7D6E83;strokeColor=none;" parent="o53D91jLIQOZ8q07HQFA-19" vertex="1">
          <mxGeometry x="32.727272727272734" width="49.09090909090909" height="45" as="geometry" />
        </mxCell>
        <mxCell id="o53D91jLIQOZ8q07HQFA-7" value="" style="ellipse;whiteSpace=wrap;html=1;fillColor=#7D6E83;strokeColor=none;" parent="o53D91jLIQOZ8q07HQFA-19" vertex="1">
          <mxGeometry x="8.181818181818183" y="30.000000000000004" width="49.09090909090909" height="45" as="geometry" />
        </mxCell>
        <mxCell id="o53D91jLIQOZ8q07HQFA-8" value="" style="ellipse;whiteSpace=wrap;html=1;fillColor=#7D6E83;strokeColor=none;" parent="o53D91jLIQOZ8q07HQFA-19" vertex="1">
          <mxGeometry y="67.5" width="49.09090909090909" height="45" as="geometry" />
        </mxCell>
        <mxCell id="o53D91jLIQOZ8q07HQFA-9" value="" style="ellipse;whiteSpace=wrap;html=1;fillColor=#7D6E83;strokeColor=none;" parent="o53D91jLIQOZ8q07HQFA-19" vertex="1">
          <mxGeometry x="8.181818181818183" y="105" width="49.09090909090909" height="45" as="geometry" />
        </mxCell>
        <mxCell id="o53D91jLIQOZ8q07HQFA-10" value="" style="ellipse;whiteSpace=wrap;html=1;fillColor=#7D6E83;strokeColor=none;" parent="o53D91jLIQOZ8q07HQFA-19" vertex="1">
          <mxGeometry x="32.727272727272734" y="135" width="49.09090909090909" height="45" as="geometry" />
        </mxCell>
        <mxCell id="o53D91jLIQOZ8q07HQFA-11" value="" style="rounded=0;whiteSpace=wrap;html=1;strokeColor=none;fillColor=#7D6E83;" parent="o53D91jLIQOZ8q07HQFA-19" vertex="1">
          <mxGeometry x="40.90909090909092" y="22.5" width="40.90909090909092" height="135" as="geometry" />
        </mxCell>
        <mxCell id="o53D91jLIQOZ8q07HQFA-18" value="" style="group;rotation=-180;" parent="o53D91jLIQOZ8q07HQFA-19" vertex="1" connectable="0">
          <mxGeometry x="98.18181818181819" width="81.81818181818184" height="180" as="geometry" />
        </mxCell>
        <mxCell id="o53D91jLIQOZ8q07HQFA-12" value="" style="ellipse;whiteSpace=wrap;html=1;fillColor=#7D6E83;strokeColor=none;rotation=-180;" parent="o53D91jLIQOZ8q07HQFA-18" vertex="1">
          <mxGeometry y="135" width="49.09090909090909" height="45" as="geometry" />
        </mxCell>
        <mxCell id="o53D91jLIQOZ8q07HQFA-13" value="" style="ellipse;whiteSpace=wrap;html=1;fillColor=#7D6E83;strokeColor=none;rotation=-180;" parent="o53D91jLIQOZ8q07HQFA-18" vertex="1">
          <mxGeometry x="24.545454545454547" y="105" width="49.09090909090909" height="45" as="geometry" />
        </mxCell>
        <mxCell id="o53D91jLIQOZ8q07HQFA-14" value="" style="ellipse;whiteSpace=wrap;html=1;fillColor=#7D6E83;strokeColor=none;rotation=-180;" parent="o53D91jLIQOZ8q07HQFA-18" vertex="1">
          <mxGeometry x="32.727272727272734" y="67.5" width="49.09090909090909" height="45" as="geometry" />
        </mxCell>
        <mxCell id="o53D91jLIQOZ8q07HQFA-15" value="" style="ellipse;whiteSpace=wrap;html=1;fillColor=#7D6E83;strokeColor=none;rotation=-180;" parent="o53D91jLIQOZ8q07HQFA-18" vertex="1">
          <mxGeometry x="24.545454545454547" y="30.000000000000004" width="49.09090909090909" height="45" as="geometry" />
        </mxCell>
        <mxCell id="o53D91jLIQOZ8q07HQFA-16" value="" style="ellipse;whiteSpace=wrap;html=1;fillColor=#7D6E83;strokeColor=none;rotation=-180;" parent="o53D91jLIQOZ8q07HQFA-18" vertex="1">
          <mxGeometry width="49.09090909090909" height="45" as="geometry" />
        </mxCell>
        <mxCell id="o53D91jLIQOZ8q07HQFA-17" value="" style="rounded=0;whiteSpace=wrap;html=1;strokeColor=none;fillColor=#7D6E83;rotation=-180;" parent="o53D91jLIQOZ8q07HQFA-18" vertex="1">
          <mxGeometry y="22.5" width="40.90909090909092" height="135" as="geometry" />
        </mxCell>
        <mxCell id="o53D91jLIQOZ8q07HQFA-20" value="" style="group;rotation=90;" parent="1" vertex="1" connectable="0">
          <mxGeometry x="350" y="1300" width="175" height="200" as="geometry" />
        </mxCell>
        <mxCell id="o53D91jLIQOZ8q07HQFA-21" value="" style="ellipse;whiteSpace=wrap;html=1;fillColor=#003459;strokeColor=none;rotation=90;" parent="o53D91jLIQOZ8q07HQFA-20" vertex="1">
          <mxGeometry x="139" y="43" width="47.727272727272734" height="50" as="geometry" />
        </mxCell>
        <mxCell id="o53D91jLIQOZ8q07HQFA-22" value="" style="ellipse;whiteSpace=wrap;html=1;fillColor=#003459;strokeColor=none;rotation=90;" parent="o53D91jLIQOZ8q07HQFA-20" vertex="1">
          <mxGeometry x="105" y="19" width="47.727272727272734" height="50" as="geometry" />
        </mxCell>
        <mxCell id="o53D91jLIQOZ8q07HQFA-23" value="" style="ellipse;whiteSpace=wrap;html=1;fillColor=#003459;strokeColor=none;rotation=90;" parent="o53D91jLIQOZ8q07HQFA-20" vertex="1">
          <mxGeometry x="64" y="11" width="47.727272727272734" height="50" as="geometry" />
        </mxCell>
        <mxCell id="o53D91jLIQOZ8q07HQFA-24" value="" style="ellipse;whiteSpace=wrap;html=1;fillColor=#003459;strokeColor=none;rotation=90;" parent="o53D91jLIQOZ8q07HQFA-20" vertex="1">
          <mxGeometry x="22" y="19" width="47.727272727272734" height="50" as="geometry" />
        </mxCell>
        <mxCell id="o53D91jLIQOZ8q07HQFA-25" value="" style="ellipse;whiteSpace=wrap;html=1;fillColor=#003459;strokeColor=none;rotation=90;" parent="o53D91jLIQOZ8q07HQFA-20" vertex="1">
          <mxGeometry x="-11" y="43" width="47.727272727272734" height="50" as="geometry" />
        </mxCell>
        <mxCell id="o53D91jLIQOZ8q07HQFA-26" value="" style="rounded=0;whiteSpace=wrap;html=1;strokeColor=none;fillColor=#003459;rotation=90;" parent="o53D91jLIQOZ8q07HQFA-20" vertex="1">
          <mxGeometry x="68" y="-3" width="39.77272727272728" height="150" as="geometry" />
        </mxCell>
        <mxCell id="o53D91jLIQOZ8q07HQFA-27" value="" style="group;rotation=-90;" parent="o53D91jLIQOZ8q07HQFA-20" vertex="1" connectable="0">
          <mxGeometry x="48" y="48" width="79.54545454545456" height="200" as="geometry" />
        </mxCell>
        <mxCell id="o53D91jLIQOZ8q07HQFA-28" value="" style="ellipse;whiteSpace=wrap;html=1;fillColor=#003459;strokeColor=none;rotation=-90;" parent="o53D91jLIQOZ8q07HQFA-27" vertex="1">
          <mxGeometry x="-59" y="59" width="47.727272727272734" height="50" as="geometry" />
        </mxCell>
        <mxCell id="o53D91jLIQOZ8q07HQFA-29" value="" style="ellipse;whiteSpace=wrap;html=1;fillColor=#003459;strokeColor=none;rotation=-90;" parent="o53D91jLIQOZ8q07HQFA-27" vertex="1">
          <mxGeometry x="-26" y="83" width="47.727272727272734" height="50" as="geometry" />
        </mxCell>
        <mxCell id="o53D91jLIQOZ8q07HQFA-30" value="" style="ellipse;whiteSpace=wrap;html=1;fillColor=#003459;strokeColor=none;rotation=-90;" parent="o53D91jLIQOZ8q07HQFA-27" vertex="1">
          <mxGeometry x="16" y="91" width="47.727272727272734" height="50" as="geometry" />
        </mxCell>
        <mxCell id="o53D91jLIQOZ8q07HQFA-31" value="" style="ellipse;whiteSpace=wrap;html=1;fillColor=#003459;strokeColor=none;rotation=-90;" parent="o53D91jLIQOZ8q07HQFA-27" vertex="1">
          <mxGeometry x="58" y="83" width="47.727272727272734" height="50" as="geometry" />
        </mxCell>
        <mxCell id="o53D91jLIQOZ8q07HQFA-32" value="" style="ellipse;whiteSpace=wrap;html=1;fillColor=#003459;strokeColor=none;rotation=-90;" parent="o53D91jLIQOZ8q07HQFA-27" vertex="1">
          <mxGeometry x="91" y="59" width="47.727272727272734" height="50" as="geometry" />
        </mxCell>
        <mxCell id="o53D91jLIQOZ8q07HQFA-33" value="" style="rounded=0;whiteSpace=wrap;html=1;strokeColor=none;fillColor=#003459;rotation=-90;" parent="o53D91jLIQOZ8q07HQFA-27" vertex="1">
          <mxGeometry x="20" y="5" width="39.77272727272728" height="150" as="geometry" />
        </mxCell>
        <mxCell id="8WUyxdrXLbyLRGO1gfWQ-1" value="" style="rounded=0;whiteSpace=wrap;html=1;fillColor=#F8EDE3;strokeColor=none;arcSize=0;" vertex="1" parent="1">
          <mxGeometry x="720" y="760" width="400" height="400" as="geometry" />
        </mxCell>
        <mxCell id="8WUyxdrXLbyLRGO1gfWQ-2" value="" style="ellipse;whiteSpace=wrap;html=1;fillColor=#7D6E83;strokeColor=none;" vertex="1" parent="1">
          <mxGeometry x="870" y="910" width="100" height="100" as="geometry" />
        </mxCell>
        <mxCell id="8WUyxdrXLbyLRGO1gfWQ-3" value="" style="ellipse;whiteSpace=wrap;html=1;fillColor=#7D6E83;strokeColor=none;" vertex="1" parent="1">
          <mxGeometry x="780" y="820" width="60" height="60" as="geometry" />
        </mxCell>
        <mxCell id="8WUyxdrXLbyLRGO1gfWQ-4" value="" style="ellipse;whiteSpace=wrap;html=1;fillColor=#7D6E83;strokeColor=none;" vertex="1" parent="1">
          <mxGeometry x="1000" y="820" width="60" height="60" as="geometry" />
        </mxCell>
        <mxCell id="8WUyxdrXLbyLRGO1gfWQ-5" value="" style="ellipse;whiteSpace=wrap;html=1;fillColor=#7D6E83;strokeColor=none;" vertex="1" parent="1">
          <mxGeometry x="1000" y="1040" width="60" height="60" as="geometry" />
        </mxCell>
        <mxCell id="8WUyxdrXLbyLRGO1gfWQ-6" value="" style="endArrow=none;html=1;rounded=0;strokeWidth=15;strokeColor=#7D6E83;exitX=0.333;exitY=0.667;exitDx=0;exitDy=0;exitPerimeter=0;" edge="1" parent="1" source="8WUyxdrXLbyLRGO1gfWQ-7">
          <mxGeometry width="50" height="50" relative="1" as="geometry">
            <mxPoint x="800" y="1080" as="sourcePoint" />
            <mxPoint x="1038.7867965644036" y="841.2132034355964" as="targetPoint" />
          </mxGeometry>
        </mxCell>
        <mxCell id="8WUyxdrXLbyLRGO1gfWQ-7" value="" style="ellipse;whiteSpace=wrap;html=1;fillColor=#7D6E83;strokeColor=none;" vertex="1" parent="1">
          <mxGeometry x="780" y="1040" width="60" height="60" as="geometry" />
        </mxCell>
        <mxCell id="8WUyxdrXLbyLRGO1gfWQ-8" value="" style="endArrow=none;html=1;rounded=0;strokeWidth=15;strokeColor=#7D6E83;entryX=0.5;entryY=0.5;entryDx=0;entryDy=0;entryPerimeter=0;exitX=0.5;exitY=0.5;exitDx=0;exitDy=0;exitPerimeter=0;" edge="1" parent="1" source="8WUyxdrXLbyLRGO1gfWQ-5" target="8WUyxdrXLbyLRGO1gfWQ-3">
          <mxGeometry width="50" height="50" relative="1" as="geometry">
            <mxPoint x="1020" y="1060" as="sourcePoint" />
            <mxPoint x="864" y="904" as="targetPoint" />
          </mxGeometry>
        </mxCell>
        <mxCell id="8WUyxdrXLbyLRGO1gfWQ-9" value="" style="rounded=1;whiteSpace=wrap;html=1;fillColor=#F8EDE3;strokeColor=none;arcSize=20;" vertex="1" parent="1">
          <mxGeometry x="900" y="770" width="40" height="340" as="geometry" />
        </mxCell>
        <mxCell id="8WUyxdrXLbyLRGO1gfWQ-10" value="" style="group" vertex="1" connectable="0" parent="1">
          <mxGeometry x="830" y="870" width="180" height="180" as="geometry" />
        </mxCell>
        <mxCell id="8WUyxdrXLbyLRGO1gfWQ-11" value="" style="ellipse;whiteSpace=wrap;html=1;fillColor=#7D6E83;strokeColor=none;" vertex="1" parent="8WUyxdrXLbyLRGO1gfWQ-10">
          <mxGeometry x="32.727272727272734" width="49.09090909090909" height="45" as="geometry" />
        </mxCell>
        <mxCell id="8WUyxdrXLbyLRGO1gfWQ-12" value="" style="ellipse;whiteSpace=wrap;html=1;fillColor=#7D6E83;strokeColor=none;" vertex="1" parent="8WUyxdrXLbyLRGO1gfWQ-10">
          <mxGeometry x="8.181818181818183" y="30.000000000000004" width="49.09090909090909" height="45" as="geometry" />
        </mxCell>
        <mxCell id="8WUyxdrXLbyLRGO1gfWQ-13" value="" style="ellipse;whiteSpace=wrap;html=1;fillColor=#7D6E83;strokeColor=none;" vertex="1" parent="8WUyxdrXLbyLRGO1gfWQ-10">
          <mxGeometry y="67.5" width="49.09090909090909" height="45" as="geometry" />
        </mxCell>
        <mxCell id="8WUyxdrXLbyLRGO1gfWQ-14" value="" style="ellipse;whiteSpace=wrap;html=1;fillColor=#7D6E83;strokeColor=none;" vertex="1" parent="8WUyxdrXLbyLRGO1gfWQ-10">
          <mxGeometry x="8.181818181818183" y="105" width="49.09090909090909" height="45" as="geometry" />
        </mxCell>
        <mxCell id="8WUyxdrXLbyLRGO1gfWQ-15" value="" style="ellipse;whiteSpace=wrap;html=1;fillColor=#7D6E83;strokeColor=none;" vertex="1" parent="8WUyxdrXLbyLRGO1gfWQ-10">
          <mxGeometry x="32.727272727272734" y="135" width="49.09090909090909" height="45" as="geometry" />
        </mxCell>
        <mxCell id="8WUyxdrXLbyLRGO1gfWQ-16" value="" style="rounded=0;whiteSpace=wrap;html=1;strokeColor=none;fillColor=#7D6E83;" vertex="1" parent="8WUyxdrXLbyLRGO1gfWQ-10">
          <mxGeometry x="40.90909090909092" y="22.5" width="40.90909090909092" height="135" as="geometry" />
        </mxCell>
        <mxCell id="8WUyxdrXLbyLRGO1gfWQ-17" value="" style="group;rotation=-180;" vertex="1" connectable="0" parent="8WUyxdrXLbyLRGO1gfWQ-10">
          <mxGeometry x="98.18181818181819" width="81.81818181818184" height="180" as="geometry" />
        </mxCell>
        <mxCell id="8WUyxdrXLbyLRGO1gfWQ-18" value="" style="ellipse;whiteSpace=wrap;html=1;fillColor=#7D6E83;strokeColor=none;rotation=-180;" vertex="1" parent="8WUyxdrXLbyLRGO1gfWQ-17">
          <mxGeometry y="135" width="49.09090909090909" height="45" as="geometry" />
        </mxCell>
        <mxCell id="8WUyxdrXLbyLRGO1gfWQ-19" value="" style="ellipse;whiteSpace=wrap;html=1;fillColor=#7D6E83;strokeColor=none;rotation=-180;" vertex="1" parent="8WUyxdrXLbyLRGO1gfWQ-17">
          <mxGeometry x="24.545454545454547" y="105" width="49.09090909090909" height="45" as="geometry" />
        </mxCell>
        <mxCell id="8WUyxdrXLbyLRGO1gfWQ-20" value="" style="ellipse;whiteSpace=wrap;html=1;fillColor=#7D6E83;strokeColor=none;rotation=-180;" vertex="1" parent="8WUyxdrXLbyLRGO1gfWQ-17">
          <mxGeometry x="32.727272727272734" y="67.5" width="49.09090909090909" height="45" as="geometry" />
        </mxCell>
        <mxCell id="8WUyxdrXLbyLRGO1gfWQ-21" value="" style="ellipse;whiteSpace=wrap;html=1;fillColor=#7D6E83;strokeColor=none;rotation=-180;" vertex="1" parent="8WUyxdrXLbyLRGO1gfWQ-17">
          <mxGeometry x="24.545454545454547" y="30.000000000000004" width="49.09090909090909" height="45" as="geometry" />
        </mxCell>
        <mxCell id="8WUyxdrXLbyLRGO1gfWQ-22" value="" style="ellipse;whiteSpace=wrap;html=1;fillColor=#7D6E83;strokeColor=none;rotation=-180;" vertex="1" parent="8WUyxdrXLbyLRGO1gfWQ-17">
          <mxGeometry width="49.09090909090909" height="45" as="geometry" />
        </mxCell>
        <mxCell id="8WUyxdrXLbyLRGO1gfWQ-23" value="" style="rounded=0;whiteSpace=wrap;html=1;strokeColor=none;fillColor=#7D6E83;rotation=-180;" vertex="1" parent="8WUyxdrXLbyLRGO1gfWQ-17">
          <mxGeometry y="22.5" width="40.90909090909092" height="135" as="geometry" />
        </mxCell>
      </root>
    </mxGraphModel>
  </diagram>
</mxfile>
